<svg xmlns="http://www.w3.org/2000/svg" viewBox="0 0 141.73 119.39"><defs><style>.cls-1{fill:#002a54;}</style></defs><title>Artboard 23</title><g id="visit-card-back"><path class="cls-1" d="M27.12,87.82,24,97.39,20.8,87.82a1.42,1.42,0,0,0-1.36-1H15.55v15.75h3.18V91.68l3.58,9.47h3.28l3.6-9.47v10.91h3.19V86.84h-3.9A1.42,1.42,0,0,0,27.12,87.82Z"/><path class="cls-1" d="M46.27,87.81a7.42,7.42,0,0,0-8.1-.2,8.08,8.08,0,0,0-2.84,3,8.53,8.53,0,0,0,0,8.2,8.08,8.08,0,0,0,2.84,3,7.39,7.39,0,0,0,7.79,0,8.08,8.08,0,0,0,2.84-3,8.27,8.27,0,0,0,1.05-4.11v-.93H42.66a1.43,1.43,0,0,0-1.43,1.43v1.25h5.39A4.55,4.55,0,0,1,46,97.79a4.66,4.66,0,0,1-1.61,1.42A4.4,4.4,0,0,1,40,99.06a4.77,4.77,0,0,1-1.69-1.84,5.32,5.32,0,0,1-.62-2.53,5.15,5.15,0,0,1,.63-2.52A5,5,0,0,1,40,90.34a4.27,4.27,0,0,1,2.33-.67,4.42,4.42,0,0,1,2.51.77,4.76,4.76,0,0,1,1.07,1H49.2A8,8,0,0,0,46.27,87.81Z"/><path class="cls-1" d="M60.16,97.39,57,87.82a1.42,1.42,0,0,0-1.36-1H51.76v15.75h3.18V91.68l3.58,9.47H61.8l3.6-9.47v10.91h3.19V86.84h-3.9a1.42,1.42,0,0,0-1.36,1Z"/><path class="cls-1" d="M78.1,86.84H74.74v15.75h7.9a1.44,1.44,0,0,0,1.43-1.44V99.51h-6Z"/><path class="cls-1" d="M96.39,89.93l0-3.09H85.64v15.75h9.3a1.44,1.44,0,0,0,1.43-1.44V99.51H89V96.15h6.55V93.3H89V89.91Z"/><path class="cls-1" d="M108.58,99,103,87.63a1.44,1.44,0,0,0-1.29-.79H98.23v15.75h3.18V91.7l5.09,10.1a1.45,1.45,0,0,0,1.28.79h4V86.84h-3.19Z"/><path class="cls-1" d="M125,95.12a10.17,10.17,0,0,0-4.3-1.87c-.92-.22-1.59-.4-2-.55a2.75,2.75,0,0,1-1-.54,1.18,1.18,0,0,1-.33-.88,1.33,1.33,0,0,1,.82-1.21,4.49,4.49,0,0,1,2.17-.45,11.8,11.8,0,0,1,3,.46A1.4,1.4,0,0,0,125,89.2l.63-1.66a15.33,15.33,0,0,0-5.26-1.06,8.77,8.77,0,0,0-3.29.59,5.29,5.29,0,0,0-2.27,1.67,4,4,0,0,0-.83,2.54,4.28,4.28,0,0,0,.51,2.17A4.39,4.39,0,0,0,116.18,95a14.26,14.26,0,0,0,3.28,1.28c.15,0,.37.09.67.18a11.8,11.8,0,0,1,2.09.73,1.08,1.08,0,0,1,.63,1,1.27,1.27,0,0,1-.83,1.14,5,5,0,0,1-2.18.41,10.41,10.41,0,0,1-2.64-.39,9.56,9.56,0,0,1-2.4-.92l-1.15,2.81a12.1,12.1,0,0,0,3,1.16,13.22,13.22,0,0,0,3.34.46,8.23,8.23,0,0,0,3.23-.6,5,5,0,0,0,2.21-1.73,4.47,4.47,0,0,0,.8-2.65A3.63,3.63,0,0,0,125,95.12Z"/><path class="cls-1" d="M82.45,40.82H72.62a1.75,1.75,0,0,0-1.75,1.76v2.16h7.58A7.86,7.86,0,1,1,76,36.9h5a11.76,11.76,0,1,0,1.41,7.84,10.76,10.76,0,0,0,0-3.92Z"/><path class="cls-1" d="M94.69,40.82h2.38A26.36,26.36,0,0,0,72.83,16.58V19a1.75,1.75,0,0,0,1.49,1.73A22.41,22.41,0,0,1,93,39.33,1.75,1.75,0,0,0,94.69,40.82Z"/><path class="cls-1" d="M47,44.74H44.66A26.37,26.37,0,0,0,68.91,69V66.61a1.75,1.75,0,0,0-1.5-1.73A22.41,22.41,0,0,1,48.77,46.24,1.75,1.75,0,0,0,47,44.74Z"/><path class="cls-1" d="M68.1,28.53v-12H65.16a1.75,1.75,0,0,0-1.51.86L56.34,29.84,49.17,17.37a1.75,1.75,0,0,0-1.52-.87H44.58V40H48.5V24.49L53.33,33l6,0,4.85-8.47v5.28A14.55,14.55,0,0,1,68.1,28.53Z"/><path class="cls-1" d="M73.63,69.07h3.92v-6h0V55.86h0v-.19A14.47,14.47,0,0,1,73.63,57Z"/><path class="cls-1" d="M94.21,45.62a1.77,1.77,0,0,0-1.51.86l-6.42,11L85.39,59l-.87-1.51-2.86-5a14.68,14.68,0,0,1-3.23,2.69l.08.14,3.87,6.86,6,0,4.85-8.47V69.07h3.92V45.62Z"/></g></svg>